<svg xmlns="http://www.w3.org/2000/svg" viewBox="0 0 512 512">
	<g>
		<path fill="#94a3b8" d="M501.22,41.433v214.59H250.61V0h209.178c5.088,0,10.015,0.889,14.537,2.666 c11.226,4.2,20.11,13.085,24.229,24.229C500.251,31.418,501.22,36.344,501.22,41.433z" />
		<rect style="fill:#ffffff;" x="343.027" y="117.17" width="65.765" height="21.722"/>
	</g>
	<g>
		<path fill="#94a3b8" d="M250.61,0v256.023H0V41.433C0,18.576,18.576,0,41.432,0H250.61z"/>
		<polygon style="fill:#FFFFFF;" points="136.154,117.862 136.154,86.02 114.461,86.02 114.461,117.862 81.889,117.862 81.889,137.94 114.461,137.94 114.461,170.045 136.154,170.045 136.154,137.94 168.729,137.94 168.729,117.862 	"/>
	</g>
	<g>
		<path fill="#94a3b8" d="M250.61,256.023v255.94H41.432c-5.734,0-11.145-1.132-16.072-3.23 c-10.015-4.2-18.01-12.276-22.21-22.21C1.131,481.595,0,476.266,0,470.61V256.023H250.61z"/>
		<polygon style="fill:#FFFFFF;" points="164.069,359.53 150.69,346.624 125.307,371.116 99.928,346.624 86.549,359.53 111.929,384.021 86.549,408.506 99.928,421.418 125.307,396.927 150.69,421.418 164.069,408.506 138.686,384.021 	"/>
	</g>
	<g>
		<path fill="#fb923c" d="M501.223,256.01v214.57c0,22.903-18.55,41.42-41.42,41.42h-209.21V256.01H501.223z"/>
		<path style="fill:#ffffff;" d="M338.643,394.289v14.053h74.545v-14.053H338.643z M338.643,359.722v14.053 h74.545v-14.053H338.643z"/>
	</g>
	<rect style="fill:#e2e8f0;" x="247.379" width="6.461" height="511.962"/>
	<rect y="252.791" style="fill:#e2e8f0;" width="501.22" height="6.462"/>
</svg>
